<svg width="38" height="38" viewBox="0 0 38 38" fill="none" xmlns="http://www.w3.org/2000/svg">
<path d="M19 31.4687C13.3444 31.4799 7.84121 29.6361 3.33392 26.22L0.764763 30.4231C0.606425 30.6857 0.556734 30.9996 0.626255 31.2982C0.695777 31.5968 0.879027 31.8565 1.13704 32.0221C6.43277 35.5335 12.6459 37.4062 19 37.4062C25.3541 37.4062 31.5673 35.5335 36.863 32.0221C37.121 31.8565 37.3042 31.5968 37.3738 31.2982C37.4433 30.9996 37.3936 30.6857 37.2353 30.4231L34.6661 26.22C30.1588 29.6361 24.6556 31.4799 19 31.4687Z" fill="#8A490E"/>
<path d="M37.2353 30.4231L34.6661 26.22C34.2617 26.5263 33.8455 26.8173 33.4228 27.1005L35.454 30.4255C35.6123 30.688 35.662 31.002 35.5925 31.3006C35.523 31.5992 35.3397 31.8589 35.0817 32.0245C30.0445 35.3799 24.16 37.2401 18.1094 37.3896C18.4062 37.3973 18.7031 37.4062 19 37.4062C25.3563 37.4216 31.5739 35.5475 36.863 32.0221C37.121 31.8565 37.3042 31.5968 37.3738 31.2982C37.4433 30.9996 37.3936 30.6857 37.2353 30.4231Z" fill="#A16D3E"/>
<path d="M34.6662 26.22C30.1534 29.6258 24.6537 31.4682 19.0001 31.4682C13.3464 31.4682 7.84672 29.6258 3.33398 26.22L15.5599 6.2225L19.0001 0.59375L22.4403 6.2225L34.6662 26.22Z" fill="#F6B361"/>
<path d="M22.4402 6.2225L19 0.59375L18.1094 2.05081L20.6589 6.2225L32.8848 26.22C28.6199 29.4511 23.4572 31.2786 18.1094 31.4503C18.4062 31.4604 18.7031 31.4688 19 31.4688C24.6555 31.4796 30.1586 29.6358 34.6661 26.22L22.4402 6.2225Z" fill="#F8C281"/>
<path d="M22.3548 6.2225C21.8558 6.42835 21.321 6.53329 20.7813 6.53125C20.1649 6.53068 19.5565 6.39276 19.0001 6.1275C18.4437 6.39276 17.8352 6.53068 17.2188 6.53125C16.6791 6.53329 16.1443 6.42835 15.6454 6.2225L19.0001 0.59375L22.3548 6.2225Z" fill="#FFFF97"/>
<path d="M19 0.59375L18.1094 2.08822L20.5734 6.2225C20.3539 6.31229 20.1268 6.38243 19.8948 6.43209C20.7168 6.61605 21.5756 6.54288 22.3547 6.2225L19 0.59375Z" fill="#FFFFAC"/>
<path d="M37.7417 30.1138L35.1726 25.9106L19.5148 0.296862L19.5101 0.289737L19.5071 0.284393C19.488 0.255947 19.4659 0.229666 19.4412 0.206018C19.4311 0.194737 19.4234 0.181081 19.4127 0.170987C19.2974 0.0732795 19.1512 0.0196533 19 0.0196533C18.8489 0.0196533 18.7027 0.0732795 18.5874 0.170987C18.5761 0.181675 18.5678 0.195925 18.5571 0.2078C18.5332 0.231145 18.5117 0.256802 18.493 0.284393L18.49 0.289143L18.4852 0.296862L2.82746 25.9106L0.258304 30.1138C0.0208864 30.5073 -0.054603 30.9776 0.0477239 31.4257C0.150051 31.8738 0.422213 32.2647 0.806929 32.5161C6.20046 36.0925 12.5285 38 19 38C25.4716 38 31.7996 36.0925 37.1931 32.5161C37.5778 32.2647 37.85 31.8738 37.9523 31.4257C38.0546 30.9776 37.9792 30.5073 37.7417 30.1138ZM33.6656 26.2141C33.5326 26.3085 33.3997 26.4017 33.2655 26.4931C33.1206 26.5925 32.9747 26.6898 32.8279 26.7852C32.6901 26.8749 32.5518 26.9634 32.4122 27.0506C32.2727 27.1379 32.1183 27.2323 31.9699 27.3208C31.8215 27.4093 31.6861 27.4894 31.543 27.5708C31.3999 27.6521 31.2461 27.7382 31.0947 27.8201C30.9433 27.9021 30.8044 27.9775 30.6583 28.0529C30.5122 28.1283 30.3537 28.2079 30.2005 28.2833C30.0473 28.3587 29.9036 28.4287 29.757 28.4982C29.6103 28.5677 29.4476 28.6401 29.2927 28.709C29.1377 28.7779 28.9911 28.8432 28.8391 28.9067C28.6871 28.9702 28.525 29.0355 28.3641 29.0979C28.2031 29.1602 28.0601 29.2166 27.9069 29.276C27.7537 29.3354 27.5839 29.3948 27.4218 29.4494C27.2597 29.504 27.1154 29.5575 26.9616 29.6085C26.7977 29.662 26.6327 29.7124 26.4676 29.7629C26.3132 29.8098 26.1589 29.8585 26.0039 29.9024C25.8353 29.9505 25.6661 29.9945 25.4962 30.0384C25.3425 30.0788 25.1887 30.1209 25.0343 30.1571C24.8609 30.1993 24.6858 30.2361 24.5118 30.2759C24.3586 30.3097 24.206 30.3448 24.0522 30.3756C23.8741 30.4119 23.6906 30.4427 23.5096 30.4748C23.3599 30.5015 23.2127 30.53 23.0607 30.5544C22.8719 30.584 22.6819 30.6084 22.4919 30.6345C22.347 30.6541 22.2033 30.6761 22.0578 30.6939C21.8583 30.7176 21.6576 30.7355 21.457 30.7533C21.3198 30.7663 21.1832 30.7824 21.0455 30.793C20.8228 30.8109 20.5978 30.8215 20.374 30.8334C20.2552 30.8394 20.1418 30.8489 20.0254 30.8536C19.6858 30.8679 19.344 30.875 19 30.875C18.656 30.875 18.3134 30.8683 17.9722 30.8548C17.8535 30.85 17.7401 30.8405 17.6237 30.8346C17.3999 30.8227 17.1748 30.812 16.9522 30.7942C16.8144 30.7835 16.6779 30.7675 16.5407 30.7545C16.34 30.7355 16.1393 30.7176 15.9398 30.6951C15.7944 30.6779 15.6501 30.6559 15.5052 30.6357C15.3158 30.6096 15.1258 30.5852 14.937 30.5555C14.7868 30.5312 14.6401 30.5027 14.4875 30.476C14.3094 30.4439 14.1253 30.413 13.9454 30.3768C13.7916 30.346 13.6391 30.3109 13.4859 30.2771C13.3119 30.2385 13.1367 30.2017 12.9634 30.1583C12.809 30.1209 12.6552 30.0788 12.5014 30.0396C12.3316 29.9956 12.1624 29.9517 11.9938 29.9036C11.8388 29.8597 11.6844 29.811 11.5301 29.7641C11.365 29.7136 11.1999 29.6631 11.0361 29.6097C10.8823 29.5586 10.7291 29.504 10.5759 29.4506C10.4138 29.3912 10.2517 29.3372 10.0908 29.2772C9.9299 29.2172 9.78562 29.1585 9.63362 29.0991C9.48162 29.0397 9.31834 28.9738 9.15862 28.9079C8.9989 28.842 8.8558 28.7773 8.70499 28.7102C8.55418 28.6431 8.39446 28.5718 8.24068 28.4994C8.0869 28.427 7.9438 28.3575 7.79655 28.2845C7.6493 28.2114 7.49137 28.133 7.33996 28.0547C7.18855 27.9763 7.04784 27.9003 6.90296 27.8213C6.75809 27.7424 6.60312 27.6569 6.45468 27.572C6.30624 27.487 6.16968 27.4063 6.02777 27.322C5.88587 27.2377 5.7309 27.1439 5.58543 27.0518C5.43996 26.9598 5.30815 26.8737 5.1698 26.7864C5.03146 26.6991 4.87709 26.5935 4.73221 26.4943C4.59802 26.4029 4.46502 26.3096 4.33202 26.2152C4.26196 26.1654 4.19249 26.1143 4.12302 26.0632L15.83 6.91777C16.8719 7.23337 17.9905 7.1833 19 6.77586C20.009 7.18607 21.1284 7.23639 22.1701 6.91836L33.8735 26.062C33.804 26.1131 33.7345 26.1642 33.6656 26.2141ZM21.4564 5.87455C20.7107 6.01407 19.9401 5.91475 19.2541 5.59074C19.1747 5.55312 19.0879 5.53361 19 5.53361C18.9121 5.53361 18.8253 5.55312 18.7459 5.59074C18.06 5.91463 17.2893 6.01394 16.5437 5.87455L19 1.75333L21.4564 5.87455ZM36.5329 31.5281C31.3348 34.9741 25.2366 36.8118 19 36.8118C12.7635 36.8118 6.66523 34.9741 1.46718 31.5281C1.33642 31.4479 1.24256 31.3194 1.20599 31.1704C1.16942 31.0215 1.19308 30.8641 1.27184 30.7325L3.50315 27.0833C3.56549 27.1278 3.62962 27.1694 3.69196 27.2133C3.82377 27.3071 3.95677 27.3986 4.09037 27.4894C4.2487 27.5983 4.40921 27.7054 4.5719 27.8106C4.70727 27.8985 4.84383 27.9846 4.9804 28.0701C5.14309 28.1714 5.30617 28.2704 5.46965 28.367C5.60898 28.4493 5.74871 28.5307 5.88884 28.611C6.05449 28.7054 6.22015 28.7975 6.38759 28.8877C6.52929 28.9669 6.67179 29.0427 6.81508 29.1151C6.98252 29.2018 7.15095 29.2865 7.32037 29.3692C7.46584 29.4411 7.6119 29.5117 7.75855 29.58C7.92896 29.6602 8.09996 29.7368 8.27215 29.8128C8.41999 29.8781 8.56902 29.9434 8.71687 30.0057C8.89024 30.0788 9.06421 30.1482 9.23877 30.2171C9.38899 30.2765 9.5398 30.3359 9.69121 30.3952C9.86934 30.4606 10.0439 30.5229 10.2214 30.5846C10.3734 30.6381 10.5254 30.6915 10.6792 30.742C10.8573 30.8014 11.0355 30.8554 11.2189 30.9106C11.3727 30.9575 11.5259 31.005 11.6809 31.049C11.8637 31.1012 12.0478 31.1487 12.2325 31.1968C12.3862 31.2372 12.5394 31.2787 12.6938 31.3155C12.8814 31.3607 13.0696 31.4011 13.2585 31.4426C13.4128 31.4759 13.566 31.5115 13.721 31.5424C13.9134 31.581 14.1075 31.6142 14.3005 31.648C14.4531 31.6754 14.6045 31.7039 14.7571 31.7282C14.9572 31.7603 15.1585 31.7876 15.3591 31.8131C15.5082 31.8333 15.656 31.8565 15.8056 31.8725C16.017 31.898 16.2302 31.9164 16.4433 31.9366C16.5829 31.9497 16.7218 31.9657 16.859 31.977C17.0965 31.9954 17.334 32.0073 17.5715 32.0197C17.6902 32.0257 17.809 32.0352 17.9277 32.0399C18.2836 32.055 18.641 32.0625 19 32.0625C19.359 32.0625 19.7167 32.0554 20.0729 32.0411C20.1917 32.0364 20.3104 32.0269 20.4262 32.0209C20.6637 32.0085 20.9012 31.9966 21.1387 31.9782C21.2782 31.9675 21.4172 31.9509 21.5543 31.9378C21.7675 31.9176 21.9806 31.8992 22.1926 31.8737C22.3422 31.8565 22.4895 31.8333 22.6391 31.8143C22.8398 31.7876 23.0411 31.7615 23.2412 31.7294C23.3938 31.705 23.5452 31.6765 23.6978 31.6492C23.8907 31.6154 24.0849 31.5821 24.2773 31.5435C24.4322 31.5127 24.5854 31.477 24.7398 31.4438C24.9286 31.4022 25.1168 31.3619 25.3045 31.3167C25.4588 31.2793 25.612 31.2378 25.7658 31.198C25.9505 31.1499 26.1345 31.1024 26.3174 31.0501C26.4724 31.0062 26.6256 30.9587 26.7793 30.9118C26.9575 30.8566 27.1403 30.802 27.3191 30.7432C27.4728 30.6927 27.6248 30.6393 27.7768 30.5858C27.955 30.5265 28.1331 30.4617 28.3071 30.3964C28.4585 30.337 28.6087 30.2777 28.7589 30.2183C28.9341 30.1488 29.108 30.0794 29.2814 30.0063C29.4304 29.944 29.5783 29.8793 29.7261 29.814C29.8977 29.7374 30.0693 29.6608 30.2397 29.5806C30.3864 29.5123 30.5324 29.4417 30.6779 29.3698C30.8469 29.2867 31.0153 29.202 31.1832 29.1157C31.3261 29.0417 31.4686 28.9659 31.6107 28.8883C31.7781 28.798 31.9438 28.706 32.1094 28.6116C32.2496 28.5324 32.3893 28.4511 32.5286 28.3676C32.6925 28.2702 32.8556 28.1712 33.0179 28.0707C33.1544 27.9852 33.291 27.8991 33.4264 27.8112C33.5879 27.7059 33.7484 27.5989 33.9079 27.49C34.0415 27.3992 34.1745 27.3077 34.3063 27.2139C34.3686 27.17 34.4328 27.1284 34.4951 27.0839L36.7252 30.7337C36.8039 30.8648 36.8278 31.0217 36.7918 31.1703C36.7558 31.3189 36.6628 31.4475 36.5329 31.5281Z" fill="black"/>
<path d="M19 13.6562C19.9838 13.6562 20.7812 12.8588 20.7812 11.875C20.7812 10.8912 19.9838 10.0938 19 10.0938C18.0162 10.0938 17.2188 10.8912 17.2188 11.875C17.2188 12.8588 18.0162 13.6562 19 13.6562Z" fill="#FF0000"/>
<path d="M19 14.25C18.5303 14.25 18.0711 14.1107 17.6805 13.8497C17.29 13.5888 16.9855 13.2178 16.8058 12.7839C16.626 12.3499 16.579 11.8724 16.6706 11.4117C16.7623 10.951 16.9885 10.5278 17.3206 10.1956C17.6528 9.86347 18.076 9.63728 18.5367 9.54564C18.9974 9.454 19.4749 9.50103 19.9089 9.68079C20.3428 9.86055 20.7138 10.165 20.9747 10.5555C21.2357 10.9461 21.375 11.4053 21.375 11.875C21.375 12.5049 21.1248 13.109 20.6794 13.5544C20.234 13.9998 19.6299 14.25 19 14.25ZM19 10.6875C18.7651 10.6875 18.5355 10.7571 18.3403 10.8876C18.145 11.0181 17.9928 11.2036 17.9029 11.4206C17.813 11.6376 17.7895 11.8763 17.8353 12.1067C17.8811 12.337 17.9942 12.5486 18.1603 12.7147C18.3264 12.8808 18.538 12.9939 18.7683 13.0397C18.9987 13.0855 19.2374 13.062 19.4544 12.9721C19.6714 12.8822 19.8569 12.73 19.9874 12.5347C20.1179 12.3395 20.1875 12.1099 20.1875 11.875C20.1875 11.5601 20.0624 11.258 19.8397 11.0353C19.617 10.8126 19.3149 10.6875 19 10.6875Z" fill="black"/>
<path d="M10.6875 26.125C11.6713 26.125 12.4688 25.3275 12.4688 24.3438C12.4688 23.36 11.6713 22.5625 10.6875 22.5625C9.70374 22.5625 8.90625 23.36 8.90625 24.3438C8.90625 25.3275 9.70374 26.125 10.6875 26.125Z" fill="#FF0000"/>
<path d="M10.6875 26.7188C10.2178 26.7188 9.75859 26.5795 9.36802 26.3185C8.97746 26.0575 8.67305 25.6866 8.49329 25.2526C8.31353 24.8187 8.2665 24.3411 8.35814 23.8804C8.44978 23.4197 8.67597 22.9965 9.00812 22.6644C9.34027 22.3322 9.76346 22.106 10.2242 22.0144C10.6849 21.9227 11.1624 21.9698 11.5964 22.1495C12.0303 22.3293 12.4013 22.6337 12.6622 23.0243C12.9232 23.4148 13.0625 23.874 13.0625 24.3438C13.0625 24.9736 12.8123 25.5777 12.3669 26.0231C11.9215 26.4685 11.3174 26.7188 10.6875 26.7188ZM10.6875 23.1563C10.4526 23.1563 10.223 23.2259 10.0278 23.3564C9.83248 23.4869 9.68027 23.6723 9.59039 23.8893C9.50052 24.1063 9.477 24.3451 9.52282 24.5754C9.56864 24.8058 9.68174 25.0174 9.84781 25.1834C10.0139 25.3495 10.2255 25.4626 10.4558 25.5084C10.6862 25.5543 10.925 25.5307 11.1419 25.4409C11.3589 25.351 11.5444 25.1988 11.6749 25.0035C11.8054 24.8082 11.875 24.5786 11.875 24.3438C11.875 24.0288 11.7499 23.7268 11.5272 23.5041C11.3045 23.2814 11.0024 23.1563 10.6875 23.1563Z" fill="black"/>
<path d="M27.3125 26.125C28.2963 26.125 29.0938 25.3275 29.0938 24.3438C29.0938 23.36 28.2963 22.5625 27.3125 22.5625C26.3287 22.5625 25.5312 23.36 25.5312 24.3438C25.5312 25.3275 26.3287 26.125 27.3125 26.125Z" fill="#FF0000"/>
<path d="M27.3125 26.7188C26.8428 26.7188 26.3836 26.5795 25.993 26.3185C25.6025 26.0575 25.298 25.6866 25.1183 25.2526C24.9385 24.8187 24.8915 24.3411 24.9831 23.8804C25.0748 23.4197 25.301 22.9965 25.6331 22.6644C25.9653 22.3322 26.3885 22.106 26.8492 22.0144C27.3099 21.9227 27.7874 21.9698 28.2214 22.1495C28.6553 22.3293 29.0263 22.6337 29.2872 23.0243C29.5482 23.4148 29.6875 23.874 29.6875 24.3438C29.6875 24.9736 29.4373 25.5777 28.9919 26.0231C28.5465 26.4685 27.9424 26.7188 27.3125 26.7188ZM27.3125 23.1563C27.0776 23.1563 26.848 23.2259 26.6528 23.3564C26.4575 23.4869 26.3053 23.6723 26.2154 23.8893C26.1255 24.1063 26.102 24.3451 26.1478 24.5754C26.1936 24.8058 26.3067 25.0174 26.4728 25.1834C26.6389 25.3495 26.8505 25.4626 27.0808 25.5084C27.3112 25.5543 27.5499 25.5307 27.7669 25.4409C27.9839 25.351 28.1694 25.1988 28.2999 25.0035C28.4304 24.8082 28.5 24.5786 28.5 24.3438C28.5 24.0288 28.3749 23.7268 28.1522 23.5041C27.9295 23.2814 27.6274 23.1563 27.3125 23.1563Z" fill="black"/>
<path d="M19 27.9062C19.9838 27.9062 20.7812 27.1088 20.7812 26.125C20.7812 25.1412 19.9838 24.3438 19 24.3438C18.0162 24.3438 17.2188 25.1412 17.2188 26.125C17.2188 27.1088 18.0162 27.9062 19 27.9062Z" fill="#FF0000"/>
<path d="M19 28.5C18.5303 28.5 18.0711 28.3607 17.6805 28.0997C17.29 27.8388 16.9855 27.4678 16.8058 27.0339C16.626 26.5999 16.579 26.1224 16.6706 25.6617C16.7623 25.201 16.9885 24.7778 17.3206 24.4456C17.6528 24.1135 18.076 23.8873 18.5367 23.7956C18.9974 23.704 19.4749 23.751 19.9089 23.9308C20.3428 24.1105 20.7138 24.415 20.9747 24.8055C21.2357 25.1961 21.375 25.6553 21.375 26.125C21.375 26.7549 21.1248 27.359 20.6794 27.8044C20.234 28.2498 19.6299 28.5 19 28.5ZM19 24.9375C18.7651 24.9375 18.5355 25.0071 18.3403 25.1376C18.145 25.2681 17.9928 25.4536 17.9029 25.6706C17.813 25.8876 17.7895 26.1263 17.8353 26.3567C17.8811 26.587 17.9942 26.7986 18.1603 26.9647C18.3264 27.1308 18.538 27.2439 18.7683 27.2897C18.9987 27.3355 19.2374 27.312 19.4544 27.2221C19.6714 27.1322 19.8569 26.98 19.9874 26.7847C20.1179 26.5895 20.1875 26.3599 20.1875 26.125C20.1875 25.8101 20.0624 25.508 19.8397 25.2853C19.617 25.0626 19.3149 24.9375 19 24.9375Z" fill="black"/>
<path d="M14.25 19.5938C15.2338 19.5938 16.0312 18.7963 16.0312 17.8125C16.0312 16.8287 15.2338 16.0312 14.25 16.0312C13.2662 16.0312 12.4688 16.8287 12.4688 17.8125C12.4688 18.7963 13.2662 19.5938 14.25 19.5938Z" fill="#FF0000"/>
<path d="M14.25 20.1875C13.7803 20.1875 13.3211 20.0482 12.9305 19.7872C12.54 19.5263 12.2355 19.1553 12.0558 18.7214C11.876 18.2874 11.829 17.8099 11.9206 17.3492C12.0123 16.8885 12.2385 16.4653 12.5706 16.1331C12.9028 15.801 13.326 15.5748 13.7867 15.4831C14.2474 15.3915 14.7249 15.4385 15.1589 15.6183C15.5928 15.798 15.9638 16.1025 16.2247 16.493C16.4857 16.8836 16.625 17.3428 16.625 17.8125C16.625 18.4424 16.3748 19.0465 15.9294 19.4919C15.484 19.9373 14.8799 20.1875 14.25 20.1875ZM14.25 16.625C14.0151 16.625 13.7855 16.6946 13.5903 16.8251C13.395 16.9556 13.2428 17.1411 13.1529 17.3581C13.063 17.5751 13.0395 17.8138 13.0853 18.0442C13.1311 18.2745 13.2442 18.4861 13.4103 18.6522C13.5764 18.8183 13.788 18.9314 14.0183 18.9772C14.2487 19.023 14.4875 18.9995 14.7044 18.9096C14.9214 18.8197 15.1069 18.6675 15.2374 18.4722C15.3679 18.277 15.4375 18.0474 15.4375 17.8125C15.4375 17.4976 15.3124 17.1955 15.0897 16.9728C14.867 16.7501 14.5649 16.625 14.25 16.625Z" fill="black"/>
<path d="M23.75 19.5938C24.7338 19.5938 25.5312 18.7963 25.5312 17.8125C25.5312 16.8287 24.7338 16.0312 23.75 16.0312C22.7662 16.0312 21.9688 16.8287 21.9688 17.8125C21.9688 18.7963 22.7662 19.5938 23.75 19.5938Z" fill="#FF0000"/>
<path d="M23.75 20.1875C23.2803 20.1875 22.8211 20.0482 22.4305 19.7872C22.04 19.5263 21.7355 19.1553 21.5558 18.7214C21.376 18.2874 21.329 17.8099 21.4206 17.3492C21.5123 16.8885 21.7385 16.4653 22.0706 16.1331C22.4028 15.801 22.826 15.5748 23.2867 15.4831C23.7474 15.3915 24.2249 15.4385 24.6589 15.6183C25.0928 15.798 25.4638 16.1025 25.7247 16.493C25.9857 16.8836 26.125 17.3428 26.125 17.8125C26.125 18.4424 25.8748 19.0465 25.4294 19.4919C24.984 19.9373 24.3799 20.1875 23.75 20.1875ZM23.75 16.625C23.5151 16.625 23.2855 16.6946 23.0903 16.8251C22.895 16.9556 22.7428 17.1411 22.6529 17.3581C22.563 17.5751 22.5395 17.8138 22.5853 18.0442C22.6311 18.2745 22.7442 18.4861 22.9103 18.6522C23.0764 18.8183 23.288 18.9314 23.5183 18.9772C23.7487 19.023 23.9874 18.9995 24.2044 18.9096C24.4214 18.8197 24.6069 18.6675 24.7374 18.4722C24.8679 18.277 24.9375 18.0474 24.9375 17.8125C24.9375 17.4976 24.8124 17.1955 24.5897 16.9728C24.367 16.7501 24.0649 16.625 23.75 16.625Z" fill="black"/>
<path d="M16.0312 22.5625H14.8438C14.6863 22.5625 14.5353 22.4999 14.4239 22.3886C14.3126 22.2772 14.25 22.1262 14.25 21.9688C14.25 21.8113 14.3126 21.6603 14.4239 21.5489C14.5353 21.4376 14.6863 21.375 14.8438 21.375H16.0312C16.1887 21.375 16.3397 21.4376 16.4511 21.5489C16.5624 21.6603 16.625 21.8113 16.625 21.9688C16.625 22.1262 16.5624 22.2772 16.4511 22.3886C16.3397 22.4999 16.1887 22.5625 16.0312 22.5625Z" fill="#D39953"/>
<path d="M23.1562 22.5625H21.9688C21.8113 22.5625 21.6603 22.4999 21.5489 22.3886C21.4376 22.2772 21.375 22.1262 21.375 21.9688C21.375 21.8113 21.4376 21.6603 21.5489 21.5489C21.6603 21.4376 21.8113 21.375 21.9688 21.375H23.1562C23.3137 21.375 23.4647 21.4376 23.5761 21.5489C23.6874 21.6603 23.75 21.8113 23.75 21.9688C23.75 22.1262 23.6874 22.2772 23.5761 22.3886C23.4647 22.4999 23.3137 22.5625 23.1562 22.5625Z" fill="#D39953"/>
<path d="M19.5938 17.8125H18.4062C18.2488 17.8125 18.0978 17.7499 17.9864 17.6386C17.8751 17.5272 17.8125 17.3762 17.8125 17.2188C17.8125 17.0613 17.8751 16.9103 17.9864 16.7989C18.0978 16.6876 18.2488 16.625 18.4062 16.625H19.5938C19.7512 16.625 19.9022 16.6876 20.0136 16.7989C20.1249 16.9103 20.1875 17.0613 20.1875 17.2188C20.1875 17.3762 20.1249 17.5272 20.0136 17.6386C19.9022 17.7499 19.7512 17.8125 19.5938 17.8125Z" fill="#D39953"/>
<path d="M14.8438 14.25H13.6562C13.4988 14.25 13.3478 14.1874 13.2364 14.0761C13.1251 13.9647 13.0625 13.8137 13.0625 13.6562C13.0625 13.4988 13.1251 13.3478 13.2364 13.2364C13.3478 13.1251 13.4988 13.0625 13.6562 13.0625H14.8438C15.0012 13.0625 15.1522 13.1251 15.2636 13.2364C15.3749 13.3478 15.4375 13.4988 15.4375 13.6562C15.4375 13.8137 15.3749 13.9647 15.2636 14.0761C15.1522 14.1874 15.0012 14.25 14.8438 14.25Z" fill="#D39953"/>
<path d="M24.3438 14.25H23.1562C22.9988 14.25 22.8478 14.1874 22.7364 14.0761C22.6251 13.9647 22.5625 13.8137 22.5625 13.6562C22.5625 13.4988 22.6251 13.3478 22.7364 13.2364C22.8478 13.1251 22.9988 13.0625 23.1562 13.0625H24.3438C24.5012 13.0625 24.6522 13.1251 24.7636 13.2364C24.8749 13.3478 24.9375 13.4988 24.9375 13.6562C24.9375 13.8137 24.8749 13.9647 24.7636 14.0761C24.6522 14.1874 24.5012 14.25 24.3438 14.25Z" fill="#D39953"/>
</svg>
