<svg width="25" height="24" viewBox="0 0 25 24" fill="none" xmlns="http://www.w3.org/2000/svg">
<path d="M2.81885 2H4.55885C5.63885 2 6.48885 2.93 6.39885 4L5.56885 13.96C5.53644 14.3459 5.58453 14.7342 5.71008 15.1005C5.83563 15.4669 6.0359 15.8031 6.29819 16.0879C6.56048 16.3728 6.87908 16.6001 7.2338 16.7553C7.58852 16.9106 7.97163 16.9905 8.35885 16.99H19.0088C20.4488 16.99 21.7088 15.81 21.8188 14.38L22.3588 6.88C22.4788 5.22 21.2188 3.87 19.5488 3.87H6.63885M9.81885 8H21.8188M17.0688 22C17.4004 22 17.7183 21.8683 17.9527 21.6339C18.1872 21.3995 18.3188 21.0815 18.3188 20.75C18.3188 20.4185 18.1872 20.1005 17.9527 19.8661C17.7183 19.6317 17.4004 19.5 17.0688 19.5C16.7373 19.5 16.4194 19.6317 16.185 19.8661C15.9505 20.1005 15.8188 20.4185 15.8188 20.75C15.8188 21.0815 15.9505 21.3995 16.185 21.6339C16.4194 21.8683 16.7373 22 17.0688 22ZM9.06885 22C9.40037 22 9.71831 21.8683 9.95273 21.6339C10.1872 21.3995 10.3188 21.0815 10.3188 20.75C10.3188 20.4185 10.1872 20.1005 9.95273 19.8661C9.71831 19.6317 9.40037 19.5 9.06885 19.5C8.73733 19.5 8.41938 19.6317 8.18496 19.8661C7.95054 20.1005 7.81885 20.4185 7.81885 20.75C7.81885 21.0815 7.95054 21.3995 8.18496 21.6339C8.41938 21.8683 8.73733 22 9.06885 22Z" stroke="black" stroke-width="1.5" stroke-miterlimit="10" stroke-linecap="round" stroke-linejoin="round"/>
</svg>
